<svg viewBox="0 0 24 24" fill="none" xmlns="http://www.w3.org/2000/svg">
<path fill-rule="evenodd" clip-rule="evenodd" d="M22 2V8.5C22 8.77614 21.7761 9 21.5 9C21.2239 9 21 8.77614 21 8.5V3.70718L11.3536 13.3536C11.1584 13.5488 10.8418 13.5488 10.6465 13.3536C10.4513 13.1583 10.4513 12.8417 10.6465 12.6464L20.293 3L15.5 3C15.2239 3 15 2.77614 15 2.5C15 2.22386 15.2239 2 15.5 2H21H22ZM3 5L3 20L18 20V11.5C18 11.2239 18.2239 11 18.5 11C18.7761 11 19 11.2239 19 11.5V20V21H18H3H2V20V5V4H3L11.5 4C11.7761 4 12 4.22386 12 4.5C12 4.77614 11.7761 5 11.5 5L3 5Z" fill="#0B0B0B"/>
</svg>
