
<svg viewBox="0 0 701 530" version="1.1" xmlns="http://www.w3.org/2000/svg" xmlns:xlink="http://www.w3.org/1999/xlink">
    <g id="Wycreative_socialmedia" stroke="none" stroke-width="1" fill="none" fill-rule="evenodd">
        <g id="Group-12" transform="translate(-1384.001712, -8.000000)" fill="#487EEE">
            <path d="M2034.76819,196.736225 L1812.45927,32.2728401 C1772.25341,2.52644299 1720.0039,0.758754786 1678.92704,23.4720095 C1634.53357,42.6054393 1603.61834,86.9617623 1604.04188,138.375162 L1604.27415,166.829129 L1581.41648,149.918131 C1526.42418,109.237369 1448.89871,120.879493 1408.25223,175.927424 C1367.60917,230.975354 1379.24294,308.579259 1434.23524,349.26686 L1656.54074,513.730245 C1694.27707,541.650829 1744.53866,545.815325 1786.34988,524.486816 C1828.15769,503.158307 1854.32856,460.005517 1853.94259,413.036981 L1853.59761,370.937281 L1887.58694,396.081535 C1926.62123,424.959474 1976.99895,427.475951 2017.49173,406.82101 C2034.04748,398.375768 2048.95347,386.049819 2060.75119,370.075662 C2101.39426,315.027731 2089.76048,237.420407 2034.76819,196.736225" id="Fill-1"></path>
        </g>
    </g>
</svg>
