
<svg viewBox="0 0 504 506" version="1.1" xmlns="http://www.w3.org/2000/svg" xmlns:xlink="http://www.w3.org/1999/xlink">
    <g id="Wycreative_socialmedia" stroke="none" stroke-width="1" fill="none" fill-rule="evenodd">
        <g id="Group-12" transform="translate(-720.001712, -20.000000)" fill="#EE8F3A">
            <path d="M1097.9126,526 C1051.60522,526 1007.02835,500.327601 984.937879,455.934247 L972.001712,429.936534 L959.062132,455.934247 C936.975078,500.324177 892.394795,526 846.090827,526 C827.154191,526 807.934255,521.705857 789.837275,512.645011 C727.497922,481.418306 702.192186,405.407871 733.314077,342.865428 L859.125978,90.0349338 C880.482599,47.1174771 924.189094,20 972.001712,20 C1019.81433,20 1063.52083,47.1174771 1084.87745,90.0349338 L1210.68935,342.865428 C1241.81124,405.407871 1216.5055,481.418306 1154.16615,512.645011 C1136.076,521.705857 1116.84582,526 1097.9126,526" id="Fill-8"></path>
        </g>
    </g>
</svg>
